#N canvas 589 60 780 451 10;
#X obj 410 92 unpack f f f f f;
#X floatatom 410 143 3 0 0 0 - - -;
#X floatatom 433 123 3 0 0 0 - - -;
#X floatatom 456 143 3 0 0 0 - - -;
#X floatatom 479 123 3 0 0 0 - - -;
#X floatatom 503 143 3 0 0 0 - - -;
#X text 28 14 Read from serial Either a specific sample or a list of
5 numbers;
#X obj 410 307 tabplay~ drum0;
#X obj 456 267 tabplay~ drum2;
#X obj 479 247 tabplay~ drum3;
#X obj 503 227 tabplay~ drum4;
#X obj 433 287 tabplay~ drum1;
#N canvas 65 267 450 300 loadsamples 0;
#N canvas 194 61 364 264 drum0 0;
#N canvas 0 50 450 250 (subpatch) 0;
#X array drum0 22050 float 2;
#X coords 0 1 22050 -1 200 140 1 0 0;
#X restore 89 66 graph;
#X obj 18 56 soundfiler;
#X msg 18 35 read -resize samples/drum0.wav drum0;
#X obj 18 14 loadbang;
#X connect 2 0 1 0;
#X connect 3 0 2 0;
#X restore 85 12 pd drum0;
#N canvas 194 61 364 264 drum2 0;
#N canvas 0 50 450 250 (subpatch) 0;
#X array drum2 44100 float 2;
#X coords 0 1 44100 -1 200 140 1 0 0;
#X restore 89 66 graph;
#X obj 18 56 soundfiler;
#X obj 18 14 loadbang;
#X msg 18 35 read -resize samples/drum2.wav drum2;
#X connect 2 0 3 0;
#X connect 3 0 1 0;
#X restore 195 12 pd drum2;
#N canvas 194 61 364 264 drum3 0;
#N canvas 0 50 450 250 (subpatch) 0;
#X array drum3 22050 float 2;
#X coords 0 1 22050 -1 200 140 1 0 0;
#X restore 89 66 graph;
#X obj 18 56 soundfiler;
#X obj 18 14 loadbang;
#X msg 18 35 read -resize samples/drum3.wav drum3;
#X connect 2 0 3 0;
#X connect 3 0 1 0;
#X restore 250 12 pd drum3;
#N canvas 194 61 364 264 drum4 0;
#N canvas 0 50 450 250 (subpatch) 0;
#X array drum4 11025 float 2;
#X coords 0 1 11025 -1 200 140 1 0 0;
#X restore 89 66 graph;
#X obj 18 56 soundfiler;
#X obj 18 14 loadbang;
#X msg 18 35 read -resize samples/drum4.wav drum4;
#X connect 2 0 3 0;
#X connect 3 0 1 0;
#X restore 305 12 pd drum4;
#N canvas 194 61 364 264 drum1 0;
#N canvas 0 50 450 250 (subpatch) 0;
#X array drum1 44100 float 2;
#X coords 0 1 44100 -1 200 140 1 0 0;
#X restore 89 66 graph;
#X obj 18 56 soundfiler;
#X obj 18 14 loadbang;
#X msg 18 35 read -resize samples/drum1.wav drum1;
#X connect 2 0 3 0;
#X connect 3 0 1 0;
#X restore 140 12 pd drum1;
#N canvas 194 61 364 264 sample0 0;
#N canvas 0 50 450 250 (subpatch) 0;
#X array sample0 22050 float 2;
#X coords 0 1 22050 -1 200 140 1 0 0;
#X restore 89 66 graph;
#X obj 18 56 soundfiler;
#X obj 18 14 loadbang;
#X msg 18 35 read -resize samples/sample0.wav sample0;
#X connect 2 0 3 0;
#X connect 3 0 1 0;
#X restore 15 42 pd sample0;
#N canvas 327 29 365 264 sample1 0;
#N canvas 0 50 450 250 (subpatch) 0;
#X array sample1 22050 float 2;
#X coords 0 1 22050 -1 200 140 1 0 0;
#X restore 89 66 graph;
#X obj 18 56 soundfiler;
#X obj 18 14 loadbang;
#X msg 18 35 read -resize samples/sample1.wav sample1;
#X connect 2 0 3 0;
#X connect 3 0 1 0;
#X restore 85 42 pd sample1;
#N canvas 327 29 365 264 sample2 0;
#N canvas 0 50 450 250 (subpatch) 0;
#X array sample2 22050 float 2;
#X coords 0 1 22050 -1 200 140 1 0 0;
#X restore 89 66 graph;
#X obj 18 56 soundfiler;
#X obj 18 14 loadbang;
#X msg 18 35 read -resize samples/sample2.wav sample2;
#X connect 2 0 3 0;
#X connect 3 0 1 0;
#X restore 155 42 pd sample2;
#N canvas 327 29 365 264 sample3 0;
#N canvas 0 50 450 250 (subpatch) 0;
#X array sample3 22050 float 2;
#X coords 0 1 22050 -1 200 140 1 0 0;
#X restore 89 66 graph;
#X obj 18 56 soundfiler;
#X obj 18 14 loadbang;
#X msg 18 35 read -resize samples/sample3.wav sample3;
#X connect 2 0 3 0;
#X connect 3 0 1 0;
#X restore 225 42 pd sample3;
#N canvas 327 29 365 264 sample4 0;
#N canvas 0 50 450 250 (subpatch) 0;
#X array sample4 22050 float 2;
#X coords 0 1 22050 -1 200 140 1 0 0;
#X restore 89 66 graph;
#X obj 18 56 soundfiler;
#X obj 18 14 loadbang;
#X msg 18 35 read -resize samples/sample4.wav sample4;
#X connect 2 0 3 0;
#X connect 3 0 1 0;
#X restore 295 42 pd sample4;
#N canvas 327 29 365 264 sample5 0;
#N canvas 0 50 450 250 (subpatch) 0;
#X array sample5 22050 float 2;
#X coords 0 1 22050 -1 200 140 1 0 0;
#X restore 89 66 graph;
#X obj 18 56 soundfiler;
#X obj 18 14 loadbang;
#X msg 18 35 read -resize samples/sample5.wav sample5;
#X connect 2 0 3 0;
#X connect 3 0 1 0;
#X restore 365 42 pd sample5;
#X restore 490 8 pd loadsamples;
#X text 390 5 load samples \; drums + backing;
#X obj 410 70 receive hits;
#X obj 620 251 receive sample;
#X obj 620 293 tabplay~;
#X obj 159 143 print;
#X obj 204 101 tgl 15 0 empty empty empty 17 7 0 10 -262144 -1 -1 0
1;
#X obj 159 121 spigot 1;
#X msg 42 78 close;
#X msg 30 56 devices;
#X obj 30 142 serial_print any;
#X obj 204 59 loadbang;
#X msg 204 81 0;
#X text 221 102 On/Off print data;
#X obj 76 216 send hits;
#X obj 410 245 sel 1;
#X obj 433 226 sel 1;
#X obj 456 206 sel 1;
#X obj 479 186 sel 1;
#X obj 503 166 sel 1;
#X obj 30 121 comport 7 57600;
#X obj 30 196 route float list;
#X msg 61 99 open 3;
#X msg 620 272 set sample\$1;
#X obj 30 236 send sample;
#X msg 688 37 \; pd dsp 1 \;;
#X obj 688 8 loadbang;
#X text 612 10 Startup DSP;
#X obj 567 364 *~ 0.7;
#X obj 567 397 dac~;
#X connect 0 0 1 0;
#X connect 0 1 2 0;
#X connect 0 2 3 0;
#X connect 0 3 4 0;
#X connect 0 4 5 0;
#X connect 1 0 27 0;
#X connect 2 0 28 0;
#X connect 3 0 29 0;
#X connect 4 0 30 0;
#X connect 5 0 31 0;
#X connect 7 0 40 0;
#X connect 8 0 40 0;
#X connect 9 0 40 0;
#X connect 10 0 40 0;
#X connect 11 0 40 0;
#X connect 14 0 0 0;
#X connect 15 0 35 0;
#X connect 16 0 40 0;
#X connect 18 0 19 1;
#X connect 19 0 17 0;
#X connect 20 0 32 0;
#X connect 21 0 32 0;
#X connect 22 0 19 0;
#X connect 22 0 33 0;
#X connect 23 0 24 0;
#X connect 24 0 18 0;
#X connect 27 0 7 0;
#X connect 28 0 11 0;
#X connect 29 0 8 0;
#X connect 30 0 9 0;
#X connect 31 0 10 0;
#X connect 32 0 22 0;
#X connect 33 0 36 0;
#X connect 33 1 26 0;
#X connect 34 0 32 0;
#X connect 35 0 16 0;
#X connect 38 0 37 0;
#X connect 40 0 41 0;
#X connect 40 0 41 1;
