#N canvas 589 60 780 451 10;
#X obj 410 122 unpack f f f f f;
#X floatatom 410 173 3 0 0 0 - - -;
#X floatatom 433 153 3 0 0 0 - - -;
#X floatatom 456 173 3 0 0 0 - - -;
#X floatatom 479 153 3 0 0 0 - - -;
#X floatatom 503 173 3 0 0 0 - - -;
#X text 28 14 Read from serial Either a specific sample or a list of
5 numbers;
#X obj 410 357 tabplay~ drum0;
#X obj 567 414 dac~;
#X obj 456 317 tabplay~ drum2;
#X obj 479 297 tabplay~ drum3;
#X obj 503 277 tabplay~ drum4;
#X obj 433 337 tabplay~ drum1;
#N canvas 0 50 450 300 loadsamples 1;
#N canvas 194 61 364 264 drum0 0;
#N canvas 0 50 450 250 (subpatch) 0;
#X array drum0 22050 float 2;
#X coords 0 1 22050 -1 200 140 1 0 0;
#X restore 89 66 graph;
#X obj 18 56 soundfiler;
#X msg 18 35 read -resize samples/drum0.wav drum0;
#X obj 18 14 loadbang;
#X connect 2 0 1 0;
#X connect 3 0 2 0;
#X restore 85 12 pd drum0;
#N canvas 194 61 364 264 drum2 0;
#N canvas 0 50 450 250 (subpatch) 0;
#X array drum2 44100 float 2;
#X coords 0 1 44100 -1 200 140 1 0 0;
#X restore 89 66 graph;
#X obj 18 56 soundfiler;
#X obj 18 14 loadbang;
#X msg 18 35 read -resize samples/drum2.wav drum2;
#X connect 2 0 3 0;
#X connect 3 0 1 0;
#X restore 195 12 pd drum2;
#N canvas 194 61 364 264 drum3 0;
#N canvas 0 50 450 250 (subpatch) 0;
#X array drum3 22050 float 2;
#X coords 0 1 22050 -1 200 140 1 0 0;
#X restore 89 66 graph;
#X obj 18 56 soundfiler;
#X obj 18 14 loadbang;
#X msg 18 35 read -resize samples/drum3.wav drum3;
#X connect 2 0 3 0;
#X connect 3 0 1 0;
#X restore 250 12 pd drum3;
#N canvas 194 61 364 264 drum4 0;
#N canvas 0 50 450 250 (subpatch) 0;
#X array drum4 11025 float 2;
#X coords 0 1 11025 -1 200 140 1 0 0;
#X restore 89 66 graph;
#X obj 18 56 soundfiler;
#X obj 18 14 loadbang;
#X msg 18 35 read -resize samples/drum4.wav drum4;
#X connect 2 0 3 0;
#X connect 3 0 1 0;
#X restore 305 12 pd drum4;
#N canvas 194 61 364 264 drum1 0;
#N canvas 0 50 450 250 (subpatch) 0;
#X array drum1 44100 float 2;
#X coords 0 1 44100 -1 200 140 1 0 0;
#X restore 89 66 graph;
#X obj 18 56 soundfiler;
#X obj 18 14 loadbang;
#X msg 18 35 read -resize samples/drum1.wav drum1;
#X connect 2 0 3 0;
#X connect 3 0 1 0;
#X restore 140 12 pd drum1;
#X restore 564 4 pd loadsamples;
#X text 380 5 load samples \; drums + backing;
#X obj 653 81 send hits;
#X obj 410 100 receive hits;
#X msg 653 60 list 1 0 0 0 0;
#X obj 620 301 receive sample;
#X obj 620 343 tabplay~;
#X msg 620 322 set \$1;
#X obj 159 143 print;
#X obj 204 101 tgl 15 0 empty empty empty 17 7 0 10 -262144 -1 -1 0
1;
#X obj 159 121 spigot 1;
#X msg 42 78 close;
#X msg 30 56 devices;
#X obj 30 142 serial_print any;
#X obj 204 59 loadbang;
#X msg 204 81 0;
#X text 221 102 On/Off print data;
#X obj 50 205 send hits;
#X obj 410 295 sel 1;
#X obj 433 276 sel 1;
#X obj 456 256 sel 1;
#X obj 479 236 sel 1;
#X obj 503 216 sel 1;
#X msg 61 99 open 7;
#X obj 30 121 comport 7 57600;
#X connect 0 0 1 0;
#X connect 0 1 2 0;
#X connect 0 2 3 0;
#X connect 0 3 4 0;
#X connect 0 4 5 0;
#X connect 1 0 31 0;
#X connect 2 0 32 0;
#X connect 3 0 33 0;
#X connect 4 0 34 0;
#X connect 5 0 35 0;
#X connect 7 0 8 0;
#X connect 7 0 8 1;
#X connect 9 0 8 0;
#X connect 9 0 8 1;
#X connect 10 0 8 0;
#X connect 10 0 8 1;
#X connect 11 0 8 0;
#X connect 11 0 8 1;
#X connect 12 0 8 0;
#X connect 12 0 8 1;
#X connect 16 0 0 0;
#X connect 17 0 15 0;
#X connect 18 0 20 0;
#X connect 19 0 8 0;
#X connect 19 0 8 1;
#X connect 20 0 19 0;
#X connect 22 0 23 1;
#X connect 23 0 21 0;
#X connect 24 0 37 0;
#X connect 25 0 37 0;
#X connect 26 0 23 0;
#X connect 26 0 30 0;
#X connect 27 0 28 0;
#X connect 28 0 22 0;
#X connect 31 0 7 0;
#X connect 32 0 12 0;
#X connect 33 0 9 0;
#X connect 34 0 10 0;
#X connect 35 0 11 0;
#X connect 36 0 37 0;
#X connect 37 0 26 0;
