#N canvas 574 180 1084 752 10;
#X obj 410 92 unpack f f f f f;
#X floatatom 410 143 3 0 0 0 - - -, f 3;
#X floatatom 433 123 3 0 0 0 - - -, f 3;
#X floatatom 456 143 3 0 0 0 - - -, f 3;
#X floatatom 479 123 3 0 0 0 - - -, f 3;
#X floatatom 503 143 3 0 0 0 - - -, f 3;
#X text 28 14 Read from serial Either a specific sample or a list of
5 numbers;
#X obj 410 307 tabplay~ drum0;
#X obj 456 267 tabplay~ drum2;
#X obj 479 247 tabplay~ drum3;
#X obj 503 227 tabplay~ drum4;
#X obj 433 287 tabplay~ drum1;
#N canvas 61 267 671 428 loadsamples 0;
#N canvas 194 61 364 264 drum0 0;
#N canvas 0 50 450 250 (subpatch) 0;
#X array drum0 22050 float 2;
#X coords 0 1 22050 -1 200 140 1 0 0;
#X restore 89 66 graph;
#X obj 18 56 soundfiler;
#X msg 18 35 read -resize samples/drum0.wav drum0;
#X obj 18 14 loadbang;
#X connect 2 0 1 0;
#X connect 3 0 2 0;
#X restore 85 12 pd drum0;
#N canvas 194 61 364 264 drum2 0;
#N canvas 0 50 450 250 (subpatch) 0;
#X array drum2 22050 float 2;
#X coords 0 1 22050 -1 200 140 1 0 0;
#X restore 89 66 graph;
#X obj 18 56 soundfiler;
#X obj 18 14 loadbang;
#X msg 18 35 read -resize samples/drum2.wav drum2;
#X connect 2 0 3 0;
#X connect 3 0 1 0;
#X restore 195 12 pd drum2;
#N canvas 194 61 364 264 drum3 0;
#N canvas 0 50 450 250 (subpatch) 0;
#X array drum3 22050 float 2;
#X coords 0 1 22050 -1 200 140 1 0 0;
#X restore 89 66 graph;
#X obj 18 56 soundfiler;
#X obj 18 14 loadbang;
#X msg 18 35 read -resize samples/drum3.wav drum3;
#X connect 2 0 3 0;
#X connect 3 0 1 0;
#X restore 250 12 pd drum3;
#N canvas 194 61 364 264 drum4 0;
#N canvas 0 50 450 250 (subpatch) 0;
#X array drum4 22050 float 2;
#X coords 0 1 22050 -1 200 140 1 0 0;
#X restore 89 66 graph;
#X obj 18 56 soundfiler;
#X obj 18 14 loadbang;
#X msg 18 35 read -resize samples/drum4.wav drum4;
#X connect 2 0 3 0;
#X connect 3 0 1 0;
#X restore 305 12 pd drum4;
#N canvas 194 61 364 264 drum1 0;
#N canvas 0 50 450 250 (subpatch) 0;
#X array drum1 22050 float 2;
#X coords 0 1 22050 -1 200 140 1 0 0;
#X restore 89 66 graph;
#X obj 18 56 soundfiler;
#X obj 18 14 loadbang;
#X msg 18 35 read -resize samples/drum1.wav drum1;
#X connect 2 0 3 0;
#X connect 3 0 1 0;
#X restore 140 12 pd drum1;
#N canvas 193 61 364 264 sample0 0;
#N canvas 0 50 450 250 (subpatch) 0;
#X array sample0 441000 float 2;
#X coords 0 1 441000 -1 200 140 1 0 0;
#X restore 89 66 graph;
#X obj 18 56 soundfiler;
#X obj 18 14 loadbang;
#X msg 18 35 read -resize samples/sample0.wav sample0;
#X connect 2 0 3 0;
#X connect 3 0 1 0;
#X restore 15 42 pd sample0;
#N canvas 327 50 365 264 sample1 0;
#N canvas 0 50 450 250 (subpatch) 0;
#X array sample1 1.9404e+06 float 2;
#X coords 0 1 1.9404e+06 -1 200 140 1 0 0;
#X restore 89 66 graph;
#X obj 18 56 soundfiler;
#X obj 18 14 loadbang;
#X msg 18 35 read -resize samples/sample1.wav sample1;
#X connect 2 0 3 0;
#X connect 3 0 1 0;
#X restore 85 42 pd sample1;
#N canvas 327 50 365 264 sample2 0;
#N canvas 0 50 450 250 (subpatch) 0;
#X array sample2 1.4994e+06 float 2;
#X coords 0 1 1.4994e+06 -1 200 140 1 0 0;
#X restore 89 66 graph;
#X obj 18 56 soundfiler;
#X obj 18 14 loadbang;
#X msg 18 35 read -resize samples/sample2.wav sample2;
#X connect 2 0 3 0;
#X connect 3 0 1 0;
#X restore 155 42 pd sample2;
#N canvas 327 50 365 264 sample3 0;
#N canvas 0 50 450 250 (subpatch) 0;
#X array sample3 155137 float 2;
#X coords 0 1 155137 -1 200 140 1 0 0;
#X restore 89 66 graph;
#X obj 18 56 soundfiler;
#X obj 18 14 loadbang;
#X msg 18 35 read -resize samples/sample3.wav sample3;
#X connect 2 0 3 0;
#X connect 3 0 1 0;
#X restore 225 42 pd sample3;
#N canvas 327 50 365 264 sample4 0;
#N canvas 0 50 450 250 (subpatch) 0;
#X array sample4 1.02403e+06 float 2;
#X coords 0 1 1.02403e+06 -1 200 140 1 0 0;
#X restore 89 66 graph;
#X obj 18 56 soundfiler;
#X obj 18 14 loadbang;
#X msg 18 35 read -resize samples/sample4.wav sample4;
#X connect 2 0 3 0;
#X connect 3 0 1 0;
#X restore 295 42 pd sample4;
#N canvas 327 50 365 264 sample5 0;
#N canvas 0 50 450 250 (subpatch) 0;
#X array sample5 512017 float 2;
#X coords 0 1 512017 -1 200 140 1 0 0;
#X restore 89 66 graph;
#X obj 18 56 soundfiler;
#X obj 18 14 loadbang;
#X msg 18 35 read -resize samples/sample5.wav sample5;
#X connect 2 0 3 0;
#X connect 3 0 1 0;
#X restore 365 42 pd sample5;
#N canvas 326 53 365 264 sample6 0;
#N canvas 0 50 450 250 (subpatch) 0;
#X array sample6 307211 float 2;
#X coords 0 1 307211 -1 200 140 1 0 0;
#X restore 89 66 graph;
#X obj 18 56 soundfiler;
#X obj 18 14 loadbang;
#X msg 18 35 read -resize samples/sample6.wav sample6;
#X connect 2 0 3 0;
#X connect 3 0 1 0;
#X restore 11 78 pd sample6;
#N canvas 323 53 365 264 sample7 0;
#N canvas 0 50 450 250 (subpatch) 0;
#X array sample7 409614 float 2;
#X coords 0 1 409614 -1 200 140 1 0 0;
#X restore 89 66 graph;
#X obj 18 56 soundfiler;
#X obj 18 14 loadbang;
#X msg 18 35 read -resize samples/sample7.wav sample7;
#X connect 2 0 3 0;
#X connect 3 0 1 0;
#X restore 89 77 pd sample7;
#N canvas 322 53 365 264 sample8 0;
#N canvas 0 50 450 250 (subpatch) 0;
#X array sample8 512017 float 2;
#X coords 0 1 512017 -1 200 140 1 0 0;
#X restore 90 90 graph;
#X obj 18 56 soundfiler;
#X obj 18 14 loadbang;
#X msg 18 35 read -resize samples/sample8.wav sample8;
#X connect 2 0 3 0;
#X connect 3 0 1 0;
#X restore 165 77 pd sample8;
#N canvas 322 53 365 264 sample9 0;
#N canvas 0 50 450 250 (subpatch) 0;
#X array sample9 614421 float 2;
#X coords 0 1 614421 -1 200 140 1 0 0;
#X restore 69 109 graph;
#X obj 18 56 soundfiler;
#X obj 18 14 loadbang;
#X msg 18 35 read -resize samples/sample9.wav sample9;
#X connect 2 0 3 0;
#X connect 3 0 1 0;
#X restore 243 77 pd sample9;
#N canvas 322 53 365 264 sample10 0;
#N canvas 0 50 450 250 (subpatch) 0;
#X array sample10 409614 float 2;
#X coords 0 1 409614 -1 200 140 1 0 0;
#X restore 69 108 graph;
#X obj 18 56 soundfiler;
#X obj 18 14 loadbang;
#X msg 18 35 read -resize samples/sample10.wav sample10;
#X connect 2 0 3 0;
#X connect 3 0 1 0;
#X restore 320 77 pd sample10;
#N canvas 322 53 365 264 sample11 0;
#N canvas 0 50 450 250 (subpatch) 0;
#X array sample11 1.33124e+06 float 2;
#X coords 0 1 1.33124e+06 -1 200 140 1 0 0;
#X restore 59 104 graph;
#X obj 18 56 soundfiler;
#X obj 18 14 loadbang;
#X msg 18 35 read -resize samples/sample11.wav sample11;
#X connect 2 0 3 0;
#X connect 3 0 1 0;
#X restore 11 107 pd sample11;
#N canvas 322 53 365 264 sample12 0;
#N canvas 0 50 450 250 (subpatch) 0;
#X array sample12 105849 float 2;
#X coords 0 1 105849 -1 200 140 1 0 0;
#X restore 74 97 graph;
#X obj 18 56 soundfiler;
#X obj 18 14 loadbang;
#X msg 18 35 read -resize samples/sample12.wav sample12;
#X connect 2 0 3 0;
#X connect 3 0 1 0;
#X restore 96 107 pd sample12;
#X restore 490 8 pd loadsamples;
#X text 390 5 load samples \; drums + backing;
#X obj 410 70 receive hits;
#X obj 720 191 receive sample;
#X obj 159 143 print;
#X obj 205 102 tgl 15 0 empty empty empty 17 7 0 10 -262144 -1 -1 0
1;
#X obj 159 121 spigot 1;
#X msg 42 78 close;
#X msg 30 56 devices;
#X obj 204 59 loadbang;
#X msg 204 81 0;
#X text 221 102 On/Off print data;
#X obj 83 236 send hits;
#X obj 410 245 sel 1;
#X obj 433 226 sel 1;
#X obj 456 206 sel 1;
#X obj 479 186 sel 1;
#X obj 503 166 sel 1;
#X obj 155 350 send sample;
#X msg 688 37 \; pd dsp 1 \;;
#X obj 688 8 loadbang;
#X text 612 10 Startup DSP;
#X msg 61 99 open 0;
#X symbolatom 829 229 10 0 0 0 - - -, f 10;
#X msg 720 212 set sample\$1;
#X obj 720 293 tabplay~ sample1;
#X obj 747 233 delay 10;
#X obj 747 257 bng 15 250 50 0 empty empty empty 17 7 0 10 -262144
-1 -1;
#X obj 30 121 comport 0 57600;
#X obj 245 387 gloves_pd;
#X obj 30 144 serial_print any;
#X obj 29 196 route float list;
#X obj 29 269 moses 1;
#X obj 505 394 receive fx;
#X obj 103 390 send fx;
#X obj 29 320 moses 0.001;
#X obj 409 423 +~;
#X obj 410 454 sigpack/shape~;
#X obj 505 424 expr 1 - $f1;
#X obj 409 569 dac~;
#X obj 409 529 *~ 0.65;
#X obj 505 512 expr 0.65 - ($f1 * 0.3);
#X connect 0 0 1 0;
#X connect 0 1 2 0;
#X connect 0 2 3 0;
#X connect 0 3 4 0;
#X connect 0 4 5 0;
#X connect 1 0 25 0;
#X connect 2 0 26 0;
#X connect 3 0 27 0;
#X connect 4 0 28 0;
#X connect 5 0 29 0;
#X connect 7 0 48 0;
#X connect 8 0 48 0;
#X connect 9 0 48 0;
#X connect 10 0 48 0;
#X connect 11 0 48 0;
#X connect 14 0 0 0;
#X connect 15 0 36 0;
#X connect 15 0 38 0;
#X connect 17 0 18 1;
#X connect 18 0 16 0;
#X connect 19 0 40 0;
#X connect 20 0 40 0;
#X connect 21 0 22 0;
#X connect 22 0 17 0;
#X connect 25 0 7 0;
#X connect 26 0 11 0;
#X connect 27 0 8 0;
#X connect 28 0 9 0;
#X connect 29 0 10 0;
#X connect 32 0 31 0;
#X connect 34 0 40 0;
#X connect 36 0 37 0;
#X connect 36 0 35 0;
#X connect 37 0 49 0;
#X connect 38 0 39 0;
#X connect 39 0 37 0;
#X connect 40 0 42 0;
#X connect 42 0 18 0;
#X connect 42 0 43 0;
#X connect 43 0 44 0;
#X connect 43 1 24 0;
#X connect 44 0 47 0;
#X connect 44 1 30 0;
#X connect 45 0 50 0;
#X connect 45 0 53 0;
#X connect 47 0 30 0;
#X connect 47 1 46 0;
#X connect 48 0 49 0;
#X connect 49 0 52 0;
#X connect 50 0 49 1;
#X connect 52 0 51 0;
#X connect 52 0 51 1;
#X connect 53 0 52 1;
