#N canvas 648 117 839 575 12;
#N canvas 131 261 692 414 loadsamples 1;
#N canvas 316 50 292 247 darkwatersample 0;
#X obj 15 133 hip~ 5;
#X obj 34 160 *~;
#X obj 34 227 dac~;
#X obj 35 192 *~ 0.6;
#N canvas 821 53 576 636 darkwater 0;
#N canvas 0 0 450 300 (subpatch) 0;
#X array darkwater 132608 float 0;
#X coords 0 1 132607 -1 200 150 1 0 0;
#X restore 14 164 graph;
#X obj 14 326 r totsamps;
#X obj 14 442 outlet~;
#X obj 14 23 loadbang;
#X obj 14 79 soundfiler;
#X obj 14 107 s totsamps;
#X msg 14 51 read -resize ../sound/darkwater.wav darkwater;
#X obj 14 383 tabplay~ darkwater;
#X msg 14 356 bang;
#X obj 13 412 hip~ 20;
#X connect 1 0 8 0;
#X connect 3 0 6 0;
#X connect 4 0 5 0;
#X connect 6 0 4 0;
#X connect 7 0 9 0;
#X connect 7 1 8 0;
#X connect 8 0 7 0;
#X connect 9 0 2 0;
#X restore 16 18 pd darkwater;
#X obj 68 108 r darkwater;
#N canvas 653 141 774 570 processdarkwater 0;
#X obj 14 14 inlet~;
#X obj 14 386 outlet~;
#X obj 165 131 s revtime;
#N canvas 0 110 565 454 hann-window 0;
#N canvas 0 0 450 300 (subpatch) 0;
#X array \$0-hann 4096 float 0;
#X coords 0 1 4095 0 300 100 1;
#X restore 82 311 graph;
#X obj 378 165 osc~;
#X obj 378 190 *~ -0.5;
#X obj 378 214 +~ 0.5;
#X obj 331 247 tabwrite~ \$0-hann;
#X obj 37 88 r window-size;
#X obj 38 173 /;
#X obj 127 142 samplerate~;
#X obj 38 251 s window-sec;
#X obj 177 204 swap;
#X obj 177 228 /;
#X obj 177 252 s window-hz;
#X obj 49 201 * 1000;
#X obj 49 228 s window-msec;
#X obj 38 115 t f b f;
#X msg 173 92 resize \$1;
#X obj 173 116 s \$0-hann;
#X obj 330 105 r window-hz;
#X msg 382 130 0;
#X obj 330 131 t f b;
#X text 15 8 calculate Hann window table (variable window size) and
constants window-hz (fundamental frequency of analysis) \, window-sec
and window-msec (analysis window size in seconds and msec).;
#X connect 1 0 2 0;
#X connect 2 0 3 0;
#X connect 3 0 4 0;
#X connect 5 0 14 0;
#X connect 6 0 8 0;
#X connect 6 0 12 0;
#X connect 7 0 6 1;
#X connect 7 0 9 1;
#X connect 9 0 10 0;
#X connect 9 1 10 1;
#X connect 10 0 11 0;
#X connect 12 0 13 0;
#X connect 14 0 6 0;
#X connect 14 0 9 0;
#X connect 14 1 7 0;
#X connect 14 2 15 0;
#X connect 15 0 16 0;
#X connect 17 0 19 0;
#X connect 18 0 1 1;
#X connect 19 0 1 0;
#X connect 19 1 4 0;
#X connect 19 1 18 0;
#X restore 393 27 pd hann-window;
#N canvas 171 194 770 575 tables 0;
#N canvas 0 0 450 300 (subpatch) 0;
#X array \$0-last-real 2048 float 0;
#X coords 0 500 2048 -500 200 150 1;
#X restore 92 44 graph;
#N canvas 0 0 450 300 (subpatch) 0;
#X array \$0-last-imag 2048 float 0;
#X coords 0 500 2048 -500 200 150 1 0 0;
#X restore 377 46 graph;
#N canvas 0 0 450 300 (subpatch) 0;
#X array \$0-amp-real 2048 float 0;
#X coords 0 500 2048 -500 200 150 1;
#X restore 94 214 graph;
#N canvas 0 0 450 300 (subpatch) 0;
#X array \$0-amp-imag 2048 float 0;
#X coords 0 500 2048 -500 200 150 1;
#X restore 381 218 graph;
#N canvas 0 0 450 300 (subpatch) 0;
#X array \$0-inc-real 2048 float 0;
#X coords 0 1 2048 -1 200 150 1;
#X restore 94 386 graph;
#N canvas 0 0 450 300 (subpatch) 0;
#X array \$0-inc-imag 2048 float 0;
#X coords 0 1 2048 -1 200 150 1;
#X restore 383 382 graph;
#X restore 393 48 pd tables;
#X obj 46 153 *~ 4;
#X floatatom 71 124 5 1 100 0 - - -;
#X obj 13 289 sigpack/decimate~;
#X floatatom 71 225 5 0 100 0 - - -;
#X floatatom 129 257 5 2 32 0 - - -;
#N canvas 165 92 986 609 fft 0;
#X obj 18 500 *~;
#X obj 291 455 *~;
#X obj 258 454 *~;
#X obj 356 456 *~;
#X obj 324 455 *~;
#X obj 324 477 +~;
#X obj 258 479 -~;
#X obj 560 383 *~;
#X obj 54 124 *~;
#X obj 22 124 *~;
#X obj 22 145 +~;
#X obj 325 82 *~;
#X obj 293 82 *~;
#X obj 608 312 *~;
#X obj 576 312 *~;
#X obj 93 63 *~;
#X obj 18 522 outlet~;
#X obj 18 475 *~;
#X obj 126 63 inlet~;
#X obj 93 84 rfft~;
#X obj 18 451 rifft~;
#X obj 576 334 rsqrt~;
#X obj 293 103 +~;
#X obj 484 383 *~;
#X obj 56 499 sig~ 0.0002;
#N canvas 167 161 699 396 decision 0;
#X obj 49 101 inlet~;
#X obj 50 341 outlet~;
#X obj 50 183 -~;
#X obj 50 226 clip~ 0 1;
#X obj 50 204 *~ 1e+020;
#X obj 196 98 inlet~;
#X text 137 213 stronger than;
#X text 139 228 old one;
#X obj 274 202 -~;
#X obj 288 177 lrshift~ 1;
#X obj 274 250 clip~ 0 1;
#X obj 274 228 *~ 1e+020;
#X obj 450 202 -~;
#X obj 450 250 clip~ 0 1;
#X obj 450 228 *~ 1e+020;
#X obj 464 177 lrshift~ -1;
#X obj 50 283 *~;
#X obj 50 312 *~;
#X text 135 199 1 if new signal;
#X text 55 73 new;
#X text 203 70 old;
#X text 51 12 Choose whether to replace the "old" signal with the "new"
one. The "new" one must be stronger than the old one and also must
be stronger than its two neighboring channels;
#X text 267 283 1 if we're louder than neighbor;
#X connect 0 0 2 0;
#X connect 0 0 9 0;
#X connect 0 0 8 0;
#X connect 0 0 12 0;
#X connect 0 0 15 0;
#X connect 2 0 4 0;
#X connect 3 0 16 0;
#X connect 4 0 3 0;
#X connect 5 0 2 1;
#X connect 8 0 11 0;
#X connect 9 0 8 1;
#X connect 10 0 16 1;
#X connect 11 0 10 0;
#X connect 12 0 14 0;
#X connect 13 0 17 1;
#X connect 14 0 13 0;
#X connect 15 0 12 1;
#X connect 16 0 17 0;
#X connect 17 0 1 0;
#X restore 23 172 pd decision;
#X obj 576 356 *~;
#N canvas 276 481 755 363 divide-by-prev 0;
#X obj 283 99 inlet~;
#X obj 385 101 inlet~;
#X obj 284 249 outlet~;
#X obj 386 249 outlet~;
#X obj 107 251 outlet~;
#X obj 208 253 outlet~;
#X obj 250 180 *~;
#X obj 217 180 *~;
#X obj 182 181 *~;
#X obj 149 181 *~;
#X obj 149 203 +~;
#X obj 217 202 -~;
#X obj 92 49 tabreceive~ \$0-last-real;
#X obj 190 72 tabreceive~ \$0-last-imag;
#X connect 0 0 2 0;
#X connect 0 0 9 0;
#X connect 0 0 6 0;
#X connect 1 0 3 0;
#X connect 1 0 8 0;
#X connect 1 0 7 0;
#X connect 6 0 11 1;
#X connect 7 0 11 0;
#X connect 8 0 10 1;
#X connect 9 0 10 0;
#X connect 10 0 4 0;
#X connect 11 0 5 0;
#X connect 12 0 9 1;
#X connect 12 0 7 1;
#X connect 13 0 8 1;
#X connect 13 0 6 1;
#X restore 603 192 pd divide-by-prev;
#N canvas 650 183 602 327 switch 0;
#X obj 19 163 inlet~;
#X obj 107 99 inlet~;
#X obj 169 100 inlet~;
#X obj 273 97 inlet~;
#X obj 333 97 inlet~;
#X obj 367 185 -~;
#X obj 338 231 +~;
#X obj 372 229 *~;
#X obj 250 182 -~;
#X obj 220 228 +~;
#X obj 254 228 *~;
#X obj 219 278 outlet~;
#X obj 338 274 outlet~;
#X text 46 28 switch between two pairs of inputs. If first inlet is
one \, take the left-hand pair \, otherwise the right-hand one.;
#X text 15 140 switch;
#X text 92 76 pass this if one;
#X text 269 77 pass this if zero;
#X connect 0 0 10 1;
#X connect 0 0 7 1;
#X connect 1 0 8 0;
#X connect 2 0 5 0;
#X connect 3 0 9 0;
#X connect 3 0 8 1;
#X connect 4 0 6 0;
#X connect 4 0 5 1;
#X connect 5 0 7 0;
#X connect 6 0 12 0;
#X connect 7 0 6 1;
#X connect 8 0 10 0;
#X connect 9 0 11 0;
#X connect 10 0 9 1;
#X restore 327 275 pd switch;
#N canvas 650 183 602 327 switch 0;
#X obj 19 163 inlet~;
#X obj 107 99 inlet~;
#X obj 169 100 inlet~;
#X obj 273 97 inlet~;
#X obj 333 97 inlet~;
#X obj 367 185 -~;
#X obj 338 231 +~;
#X obj 372 229 *~;
#X obj 250 182 -~;
#X obj 220 228 +~;
#X obj 254 228 *~;
#X obj 219 278 outlet~;
#X obj 338 274 outlet~;
#X text 46 28 switch between two pairs of inputs. If first inlet is
one \, take the left-hand pair \, otherwise the right-hand one.;
#X text 15 140 switch;
#X text 92 76 pass this if one;
#X text 269 77 pass this if zero;
#X connect 0 0 10 1;
#X connect 0 0 7 1;
#X connect 1 0 8 0;
#X connect 2 0 5 0;
#X connect 3 0 9 0;
#X connect 3 0 8 1;
#X connect 4 0 6 0;
#X connect 4 0 5 1;
#X connect 5 0 7 0;
#X connect 6 0 12 0;
#X connect 7 0 6 1;
#X connect 8 0 10 0;
#X connect 9 0 11 0;
#X connect 10 0 9 1;
#X restore 484 266 pd switch;
#X obj 655 270 r revtime;
#X obj 54 476 tabreceive~ \$0-hann;
#X obj 94 35 tabreceive~ \$0-hann;
#X obj 505 112 tabreceive~ \$0-inc-real;
#X obj 587 134 tabreceive~ \$0-inc-imag;
#X obj 752 220 tabsend~ \$0-last-imag;
#X obj 702 243 tabsend~ \$0-last-real;
#X obj 559 426 tabsend~ \$0-inc-imag;
#X obj 484 449 tabsend~ \$0-inc-real;
#X msg 665 293 set \$1;
#X obj 665 317 s revtime-set;
#X obj 800 483 loadbang;
#X msg 800 509 \; pd dsp 1 \; window-size 4096 \; revtime 20;
#X obj 800 411 r window-size;
#X msg 800 433 set \$1 4;
#X obj 800 455 block~;
#X obj 655 341 expr 1 - 0.2/max(0.2 \, $f1);
#X text 20 206 choose whether to;
#X text 18 224 punch in new (amplitude \,;
#X text 16 243 increment) pair;
#X obj 367 26 tabreceive~ \$0-amp-real;
#X obj 443 50 tabreceive~ \$0-amp-imag;
#X obj 325 537 tabsend~ \$0-amp-imag;
#X obj 258 560 tabsend~ \$0-amp-real;
#X text 361 6 previous output amplitude \, encoding both magnitude
and phase;
#X text 453 87 previous phase increment (unit-magnitude complex number)
;
#X obj 506 134 +~ 1e-015;
#X obj 366 50 +~ 1e-015;
#X text 363 482 propagate amplitudes by multiplying in the;
#X text 361 499 increments \, which advance the phase and drop;
#X text 365 514 magnitude according to revtime.;
#X text 608 370 normalize increments between 0 and;
#X text 606 388 1 according to revtime.;
#X text 78 453 IFFT and output;
#X connect 0 0 16 0;
#X connect 1 0 6 1;
#X connect 2 0 6 0;
#X connect 3 0 5 1;
#X connect 4 0 5 0;
#X connect 5 0 52 0;
#X connect 6 0 53 0;
#X connect 7 0 1 0;
#X connect 7 0 3 0;
#X connect 7 0 37 0;
#X connect 8 0 10 1;
#X connect 9 0 10 0;
#X connect 10 0 25 0;
#X connect 11 0 22 1;
#X connect 12 0 22 0;
#X connect 13 0 21 0;
#X connect 14 0 21 0;
#X connect 15 0 19 0;
#X connect 17 0 0 0;
#X connect 18 0 15 1;
#X connect 19 0 9 0;
#X connect 19 0 9 1;
#X connect 19 0 27 0;
#X connect 19 0 28 1;
#X connect 19 1 8 0;
#X connect 19 1 8 1;
#X connect 19 1 27 1;
#X connect 19 1 28 2;
#X connect 20 0 17 0;
#X connect 21 0 26 0;
#X connect 22 0 25 1;
#X connect 23 0 2 0;
#X connect 23 0 4 0;
#X connect 23 0 38 0;
#X connect 24 0 0 1;
#X connect 25 0 28 0;
#X connect 25 0 29 0;
#X connect 26 0 23 1;
#X connect 26 0 7 1;
#X connect 27 0 29 1;
#X connect 27 1 29 2;
#X connect 27 2 36 0;
#X connect 27 3 35 0;
#X connect 28 0 20 0;
#X connect 28 0 3 1;
#X connect 28 0 2 1;
#X connect 28 1 20 1;
#X connect 28 1 1 1;
#X connect 28 1 4 1;
#X connect 29 0 14 0;
#X connect 29 0 14 1;
#X connect 29 0 23 0;
#X connect 29 1 13 0;
#X connect 29 1 13 1;
#X connect 29 1 7 0;
#X connect 30 0 39 0;
#X connect 30 0 46 0;
#X connect 31 0 17 1;
#X connect 32 0 15 0;
#X connect 33 0 56 0;
#X connect 34 0 29 4;
#X connect 39 0 40 0;
#X connect 41 0 42 0;
#X connect 43 0 44 0;
#X connect 44 0 45 0;
#X connect 46 0 26 1;
#X connect 50 0 57 0;
#X connect 51 0 11 0;
#X connect 51 0 11 1;
#X connect 51 0 28 4;
#X connect 56 0 29 3;
#X connect 57 0 12 0;
#X connect 57 0 12 1;
#X connect 57 0 28 3;
#X restore 13 333 pd fft;
#X obj 165 20 r x;
#X obj 215 20 r y;
#X obj 265 20 r z;
#X obj 315 20 r at;
#X floatatom 165 53 5 0 1 0 - - -;
#X floatatom 215 52 5 0 1 0 - - -;
#X floatatom 265 52 5 0 1 0 - - -;
#X floatatom 315 52 5 0 1 0 - - -;
#X obj 14 259 *~ 0.5;
#X obj 45 186 clip~ -1 1;
#N canvas 897 76 450 300 scale32 0;
#X obj 27 33 inlet;
#X obj 27 227 outlet;
#X obj 27 189 clip 0 32;
#X obj 27 107 * 32;
#X connect 0 0 3 0;
#X connect 2 0 1 0;
#X connect 3 0 2 0;
#X restore 265 129 pd scale32;
#X obj 71 68 * 100;
#X obj 71 97 + 1;
#X obj 209 207 expr 32 - $f1;
#X obj 165 100 * 10;
#X obj 390 159 expr 1 - $f1 + 0.001;
#X obj 301 254 r pin;
#X obj 301 309 expr 1 - $f1 + 0.001;
#X floatatom 389 266 5 0 0 0 - - -;
#X connect 0 0 5 0;
#X connect 0 0 19 0;
#X connect 5 0 20 0;
#X connect 6 0 5 1;
#X connect 7 0 10 0;
#X connect 8 0 7 1;
#X connect 9 0 7 2;
#X connect 10 0 1 0;
#X connect 11 0 15 0;
#X connect 12 0 16 0;
#X connect 13 0 17 0;
#X connect 14 0 18 0;
#X connect 15 0 25 0;
#X connect 16 0 22 0;
#X connect 17 0 21 0;
#X connect 17 0 26 0;
#X connect 19 0 7 0;
#X connect 20 0 19 0;
#X connect 21 0 24 0;
#X connect 22 0 23 0;
#X connect 23 0 6 0;
#X connect 24 0 9 0;
#X connect 25 0 2 0;
#X connect 26 0 8 0;
#X connect 27 0 28 0;
#X connect 27 0 29 0;
#X restore 16 63 pd processdarkwater;
#X obj 68 134 adsr 1 1000 200 90 1000;
#X connect 0 0 1 0;
#X connect 1 0 3 0;
#X connect 3 0 2 0;
#X connect 3 0 2 1;
#X connect 4 0 6 0;
#X connect 5 0 7 0;
#X connect 6 0 0 0;
#X connect 7 0 1 1;
#X restore 75 88 pd darkwatersample;
#N canvas 0 50 302 384 datacentersample 0;
#X obj 15 223 hip~ 5;
#X obj 34 250 *~;
#X obj 34 317 dac~;
#X obj 35 282 *~ 0.6;
#N canvas 821 53 576 636 datacenter 0;
#N canvas 0 0 450 300 (subpatch) 0;
#X array datacenter 132608 float 0;
#X coords 0 1 132607 -1 200 150 1 0 0;
#X restore 13 164 graph;
#X obj 14 23 loadbang;
#X obj 14 79 soundfiler;
#X obj 14 107 s totsamps;
#X msg 14 51 read ../sound/datacenter.wav datacenter;
#X obj 14 326 r totsamps;
#X obj 14 442 outlet~;
#X msg 14 356 bang;
#X obj 13 412 hip~ 20;
#X obj 14 383 tabplay~ datacenter;
#X connect 1 0 4 0;
#X connect 2 0 3 0;
#X connect 4 0 2 0;
#X connect 5 0 7 0;
#X connect 7 0 9 0;
#X connect 8 0 6 0;
#X connect 9 0 8 0;
#X connect 9 1 7 0;
#X restore 16 18 pd datacenter;
#X obj 68 198 r datacenter;
#X obj 68 224 adsr 1 200 200 90 500;
#N canvas 0 50 450 300 processdatacenter 0;
#X obj 16 14 inlet~;
#X obj 23 115 outlet~;
#X connect 0 0 1 0;
#X restore 20 94 pd processdatacenter;
#X connect 0 0 1 0;
#X connect 1 0 3 0;
#X connect 3 0 2 0;
#X connect 3 0 2 1;
#X connect 4 0 7 0;
#X connect 5 0 6 0;
#X connect 6 0 1 1;
#X connect 7 0 0 0;
#X restore 225 88 pd datacentersample;
#N canvas 0 50 302 384 purrsample 0;
#X obj 15 223 hip~ 5;
#X obj 34 250 *~;
#X obj 34 317 dac~;
#X obj 35 282 *~ 0.6;
#X obj 68 224 adsr 1 200 200 90 500;
#X obj 68 198 r purr;
#N canvas 821 53 576 636 purr 0;
#N canvas 0 0 450 300 (subpatch) 0;
#X array purr 132608 float 0;
#X coords 0 1 132607 -1 200 150 1 0 0;
#X restore 13 164 graph;
#X obj 14 23 loadbang;
#X obj 14 79 soundfiler;
#X obj 14 107 s totsamps;
#X msg 14 51 read -resize ../sound/purr.wav purr;
#X obj 14 326 r totsamps;
#X obj 14 442 outlet~;
#X msg 14 356 bang;
#X obj 13 412 hip~ 20;
#X obj 14 383 tabplay~ purr;
#X connect 1 0 4 0;
#X connect 2 0 3 0;
#X connect 4 0 2 0;
#X connect 5 0 7 0;
#X connect 7 0 9 0;
#X connect 8 0 6 0;
#X connect 9 0 8 0;
#X connect 9 1 7 0;
#X restore 16 18 pd purr;
#N canvas 0 50 450 300 processpurr 0;
#X obj 72 61 inlet~;
#X obj 83 187 outlet~;
#X connect 0 0 1 0;
#X restore 15 106 pd processpurr;
#X connect 0 0 1 0;
#X connect 1 0 3 0;
#X connect 3 0 2 0;
#X connect 3 0 2 1;
#X connect 4 0 1 1;
#X connect 5 0 4 0;
#X connect 6 0 7 0;
#X connect 7 0 0 0;
#X restore 380 88 pd purrsample;
#N canvas 396 111 450 387 rainsample 0;
#X obj 18 222 hip~ 5;
#X obj 37 249 *~;
#X obj 71 223 adsr 1 500 200 90 1000;
#X obj 37 316 dac~;
#X obj 38 281 *~ 0.6;
#X obj 71 197 r rain;
#N canvas 330 74 573 525 processrain 0;
#X obj 23 83 inlet~;
#X obj 22 416 outlet~;
#X obj 61 177 sigpack/freqdiv~ 0;
#X floatatom 184 143 5 0 0 0 - - -;
#X obj 184 29 r y;
#X obj 184 110 * 15;
#X obj 23 214 *~ 0.7;
#X obj 248 223 cos~;
#X obj 291 201 +~ -0.25;
#X obj 291 224 cos~;
#X obj 163 268 *~;
#X obj 229 268 *~;
#X obj 162 292 -~;
#X floatatom 268 149 5 0 0 0 - - -;
#X obj 163 230 hilbert~;
#X obj 161 338 *~ 1;
#X obj 248 86 r z;
#X obj 184 56 expr 1 - $f1;
#X obj 248 120 * -0.5;
#X obj 80 373 lop~;
#X floatatom 257 482 5 0 0 0 - - -;
#X obj 369 358 r x;
#X obj 249 425 expr ($f2) * 2000 + 200;
#X obj 248 177 phasor~ 0.2;
#X obj 105 85 noise~;
#X obj 73 142 *~ 0.5;
#X obj 97 116 *~ 0.5;
#X obj 185 315 r at;
#X connect 0 0 2 0;
#X connect 0 0 25 0;
#X connect 2 0 14 0;
#X connect 2 0 6 0;
#X connect 3 0 2 1;
#X connect 4 0 17 0;
#X connect 5 0 3 0;
#X connect 6 0 14 0;
#X connect 6 0 19 0;
#X connect 7 0 10 1;
#X connect 8 0 9 0;
#X connect 9 0 11 1;
#X connect 10 0 12 0;
#X connect 11 0 12 1;
#X connect 12 0 15 0;
#X connect 14 0 10 0;
#X connect 14 1 11 0;
#X connect 15 0 19 0;
#X connect 16 0 18 0;
#X connect 16 0 22 0;
#X connect 17 0 5 0;
#X connect 18 0 13 0;
#X connect 19 0 1 0;
#X connect 21 0 22 1;
#X connect 22 0 19 1;
#X connect 22 0 20 0;
#X connect 23 0 8 0;
#X connect 23 0 7 0;
#X connect 24 0 26 0;
#X connect 25 0 14 0;
#X connect 26 0 25 0;
#X connect 27 0 15 1;
#X restore 18 102 pd processrain;
#N canvas 821 53 665 475 rain 0;
#N canvas 0 0 450 300 (subpatch) 0;
#X array rain 132608 float 0;
#X coords 0 1 132607 -1 200 150 1 0 0;
#X restore 13 156 graph;
#X obj 14 23 loadbang;
#X obj 14 79 soundfiler;
#X obj 14 107 s totsamps;
#X msg 14 51 read -resize ../sound/rain.wav rain;
#X obj 14 326 r totsamps;
#X obj 14 442 outlet~;
#X msg 14 356 bang;
#X obj 13 412 hip~ 20;
#X obj 14 383 tabplay~ rain;
#X connect 1 0 4 0;
#X connect 2 0 3 0;
#X connect 4 0 2 0;
#X connect 5 0 7 0;
#X connect 7 0 9 0;
#X connect 8 0 6 0;
#X connect 9 0 8 0;
#X connect 9 1 7 0;
#X restore 19 17 pd rain;
#X connect 0 0 1 0;
#X connect 1 0 4 0;
#X connect 2 0 1 1;
#X connect 4 0 3 0;
#X connect 4 0 3 1;
#X connect 5 0 2 0;
#X connect 6 0 0 0;
#X connect 7 0 6 0;
#X restore 75 123 pd rainsample;
#N canvas 0 50 302 360 steelmillsample 0;
#X obj 15 223 hip~ 5;
#X obj 34 250 *~;
#X obj 34 317 dac~;
#X obj 35 282 *~ 0.6;
#X obj 68 224 adsr 1 200 200 90 500;
#N canvas 821 53 576 636 steelmill 0;
#N canvas 0 0 450 300 (subpatch) 0;
#X array steelmill 150016 float 0;
#X coords 0 1 150015 -1 200 150 1 0 0;
#X restore 12 164 graph;
#X obj 14 23 loadbang;
#X obj 14 79 soundfiler;
#X obj 14 107 s totsamps;
#X msg 14 51 read -resize ../sound/steelmill.wav steelmill;
#X obj 14 326 r totsamps;
#X obj 14 442 outlet~;
#X msg 14 356 bang;
#X obj 13 412 hip~ 20;
#X obj 14 383 tabplay~ steelmill;
#X connect 1 0 4 0;
#X connect 2 0 3 0;
#X connect 4 0 2 0;
#X connect 5 0 7 0;
#X connect 7 0 9 0;
#X connect 8 0 6 0;
#X connect 9 0 8 0;
#X connect 9 1 7 0;
#X restore 16 18 pd steelmill;
#X obj 68 198 r steelmill;
#N canvas 394 107 784 609 processsteelmill 0;
#X obj 160 134 inlet~;
#X obj 437 480 outlet~;
#X floatatom 272 89 0 0 0 0 - - -;
#X floatatom 340 154 0 0 0 0 - - -;
#X obj 272 121 osc~;
#X obj 253 200 +~;
#X obj 272 30 r y;
#X obj 340 97 r z;
#X obj 44 151 *~ 1;
#X obj 43 187 clip~ -1 1, f 11;
#X floatatom 69 117 5 1 20 0 - - -;
#X obj 64 290 fiddle~ 2048;
#X obj 65 321 unpack;
#X obj 92 436 osc~;
#X obj 92 373 mtof;
#X obj 92 396 *;
#X floatatom 140 380 10 0 0 0 - - -;
#X obj 45 459 *~ 2;
#X obj 65 345 moses 1;
#X obj 140 323 r x;
#X obj 69 12 r z;
#X obj 69 59 + 1;
#X obj 123 57 r at;
#X obj 69 86 * 1;
#X obj 72 257 s~ mill2;
#X obj 416 374 r~ mill2;
#X obj 436 399 r~ mill3;
#X obj 254 328 s~ mill0;
#X obj 383 349 r~ mill0;
#X obj 140 352 * 3;
#X obj 44 563 s~ mill3;
#X obj 340 125 * 10;
#X obj 69 36 * 10;
#X obj 253 289 sigpack/decimate~;
#X floatatom 311 235 5 0 100 0 - - -;
#X floatatom 369 261 5 2 32 0 - - -;
#X obj 369 237 expr 32 - ($f2 * (30 * $f1 + 2));
#X obj 272 57 * 100;
#X obj 311 211 expr 1 - $f1 + 0.01;
#X obj 44 436 *~ 1;
#X connect 0 0 8 0;
#X connect 0 0 5 0;
#X connect 2 0 4 0;
#X connect 5 0 33 0;
#X connect 6 0 37 0;
#X connect 7 0 31 0;
#X connect 7 0 36 0;
#X connect 7 0 38 0;
#X connect 8 0 9 0;
#X connect 9 0 24 0;
#X connect 9 0 11 0;
#X connect 9 0 39 0;
#X connect 10 0 8 1;
#X connect 11 2 12 0;
#X connect 12 0 18 0;
#X connect 14 0 15 0;
#X connect 15 0 13 0;
#X connect 16 0 15 1;
#X connect 17 0 30 0;
#X connect 18 1 14 0;
#X connect 19 0 29 0;
#X connect 20 0 32 0;
#X connect 21 0 23 0;
#X connect 22 0 23 1;
#X connect 22 0 36 1;
#X connect 23 0 10 0;
#X connect 25 0 1 0;
#X connect 26 0 1 0;
#X connect 28 0 1 0;
#X connect 29 0 16 0;
#X connect 31 0 3 0;
#X connect 32 0 21 0;
#X connect 33 0 27 0;
#X connect 34 0 33 1;
#X connect 35 0 33 2;
#X connect 36 0 35 0;
#X connect 37 0 2 0;
#X connect 38 0 34 0;
#X connect 39 0 17 0;
#X restore 15 99 pd processsteelmill;
#X connect 0 0 1 0;
#X connect 1 0 3 0;
#X connect 3 0 2 0;
#X connect 3 0 2 1;
#X connect 4 0 1 1;
#X connect 5 0 7 0;
#X connect 6 0 4 0;
#X connect 7 0 0 0;
#X restore 225 123 pd steelmillsample;
#N canvas 0 50 302 384 windsample 0;
#X obj 15 223 hip~ 5;
#X obj 34 250 *~;
#X obj 34 317 dac~;
#X obj 35 282 *~ 0.6;
#X obj 68 224 adsr 1 200 200 90 500;
#N canvas 821 53 576 636 wind 0;
#N canvas 0 0 450 300 (subpatch) 0;
#X array wind 190976 float 0;
#X coords 0 1 190975 -1 200 150 1 0 0;
#X restore 13 164 graph;
#X obj 14 23 loadbang;
#X obj 14 79 soundfiler;
#X obj 14 107 s totsamps;
#X msg 14 51 read -resize ../sound/wind.wav wind;
#X obj 14 326 r totsamps;
#X obj 14 460 outlet~;
#X msg 14 356 bang;
#X obj 13 430 hip~ 20;
#X obj 14 383 tabplay~ wind;
#X connect 1 0 4 0;
#X connect 2 0 3 0;
#X connect 4 0 2 0;
#X connect 5 0 7 0;
#X connect 7 0 9 0;
#X connect 8 0 6 0;
#X connect 9 0 8 0;
#X connect 9 1 7 0;
#X restore 16 18 pd wind;
#X obj 68 198 r wind;
#N canvas 0 50 450 300 processwind 0;
#X obj 24 19 inlet~;
#X obj 19 219 outlet~;
#X connect 0 0 1 0;
#X restore 15 97 pd processwind;
#X connect 0 0 1 0;
#X connect 1 0 3 0;
#X connect 3 0 2 0;
#X connect 3 0 2 1;
#X connect 4 0 1 1;
#X connect 5 0 7 0;
#X connect 6 0 4 0;
#X connect 7 0 0 0;
#X restore 380 124 pd windsample;
#X restore 30 16 pd loadsamples;
#X msg 32 465 \; rain \$1;
#N canvas 0 50 450 300 manualtoggle 0;
#X msg 33 168 \; rain 1 \;;
#X msg 32 208 \; rain 0 \;;
#X msg 34 48 \; darkwater 1 \;;
#X msg 33 88 \; darkwater 0 \;;
#X msg 174 48 \; datacenter 1 \;;
#X msg 173 88 \; datacenter 0 \;;
#X msg 324 48 \; purr 1 \;;
#X msg 323 88 \; purr 0 \;;
#X msg 174 168 \; steelmill 1 \;;
#X msg 173 208 \; steelmill 0 \;;
#X msg 324 169 \; wind 1 \;;
#X msg 323 209 \; wind 0 \;;
#X restore 151 17 pd manualtoggle;
#X msg 112 465 \; darkwater \$1;
#X obj 32 433 r ind;
#X obj 112 433 r mid;
#X obj 222 433 r rin;
#X msg 222 465 \; steelmill \$1;
#X obj 332 433 r pin;
#X msg 42 128 close;
#X msg 30 106 devices;
#X obj 30 192 serial_print any;
#X obj 30 351 s x;
#X obj 57 331 s y;
#X obj 85 311 s z;
#X obj 112 331 s ind;
#X obj 140 311 s mid;
#X obj 167 291 s rin;
#X obj 195 271 s pin;
#X obj 223 251 s at;
#X obj 229 153 print;
#X obj 274 111 tgl 15 0 empty empty empty 17 7 0 10 -262144 -1 -1 0
1;
#X obj 229 131 spigot 1;
#X obj 274 69 loadbang;
#X msg 274 91 0;
#X text 291 112 On/Off print data;
#X obj 85 247 / 127;
#X obj 57 267 / 127;
#X obj 30 287 / 127;
#X obj 462 111 vox;
#X obj 30 218 unpack f f f f f f f f f, f 32;
#X obj 251 293 s v;
#X msg 61 149 open 10;
#X obj 30 171 comport 10 57600;
#X connect 4 0 1 0;
#X connect 5 0 3 0;
#X connect 6 0 7 0;
#X connect 9 0 33 0;
#X connect 10 0 33 0;
#X connect 11 0 22 0;
#X connect 11 0 30 0;
#X connect 21 0 22 1;
#X connect 22 0 20 0;
#X connect 23 0 24 0;
#X connect 24 0 21 0;
#X connect 26 0 14 0;
#X connect 27 0 13 0;
#X connect 28 0 12 0;
#X connect 30 0 28 0;
#X connect 30 1 27 0;
#X connect 30 2 26 0;
#X connect 30 3 15 0;
#X connect 30 4 16 0;
#X connect 30 5 17 0;
#X connect 30 6 18 0;
#X connect 30 7 19 0;
#X connect 30 8 31 0;
#X connect 32 0 33 0;
#X connect 33 0 11 0;
